<?xml version="1.0" encoding="utf-8"?>
<svg xmlns="http://www.w3.org/2000/svg"
	xmlns:xlink="http://www.w3.org/1999/xlink"
	width="8px" height="15px" viewBox="0 0 8 15">
<path fillRule="evenodd" d="M 2.11 3.56C 2.11 3.91 2.12 5.6 2.12 5.6 2.12 5.6 0.57 5.6 0.57 5.6 0.57 5.6 0.57 7.76 0.57 7.76 0.57 7.76 2.11 7.76 2.11 7.76 2.11 7.76 2.12 14.62 2.12 14.62 2.12 14.62 5.23 14.62 5.23 14.62 5.23 14.62 5.23 7.76 5.23 7.76 5.23 7.76 7.22 7.76 7.22 7.76 7.22 7.76 7.37 6.81 7.46 5.6 7.19 5.6 5.23 5.6 5.23 5.6 5.23 5.6 5.18 4.1 5.18 3.86 5.18 3.63 5.51 3.31 5.84 3.31 6.17 3.31 6.86 3.31 7.51 3.31 7.51 2.99 7.51 1.91 7.51 0.9 6.65 0.9 5.67 0.9 5.24 0.9 2.03 0.9 2.11 3.22 2.11 3.56Z" fill="rgb(95,95,95)"/></svg>
