<?xml version="1.0" encoding="utf-8"?>
<svg xmlns="http://www.w3.org/2000/svg"
	xmlns:xlink="http://www.w3.org/1999/xlink"
	width="16px" height="15px" viewBox="0 0 16 15">
<path fillRule="evenodd" d="M 13.79 3.61C 13.79 4.11 13.38 4.52 12.87 4.52 12.87 4.52 11.99 4.52 11.99 4.52 11.48 4.52 11.06 4.11 11.06 3.61 11.06 3.61 11.06 2.74 11.06 2.74 11.06 2.23 11.48 1.83 11.99 1.83 11.99 1.83 12.87 1.83 12.87 1.83 13.38 1.83 13.79 2.23 13.79 2.74 13.79 2.74 13.79 3.61 13.79 3.61 13.79 3.61 13.79 3.61 13.79 3.61ZM 13.79 12.02C 13.79 12.53 13.32 12.94 12.81 12.94 12.81 12.94 3.57 12.94 3.57 12.94 3.06 12.94 2.55 12.53 2.55 12.02 2.55 12.02 2.55 7.46 2.55 7.46 2.55 6.95 3.06 6.54 3.57 6.54 3.57 6.54 3.8 6.54 4.09 6.54 4.13 6.54 4.16 6.54 4.19 6.55 4.39 6.58 4.51 6.72 4.53 6.9 4.53 6.93 4.53 6.96 4.52 7 4.52 7.02 4.57 7.04 4.57 7.06 4.55 7.19 4.59 7.32 4.59 7.46 4.59 7.46 4.59 7.46 4.59 7.46 4.59 9.45 6.16 11.07 8.17 11.11 8.15 11.11 8.1 11.11 8.08 11.11 8.1 11.11 8.11 11.11 8.13 11.11 8.15 11.11 8.17 11.11 8.19 11.11 10.23 11.11 11.88 9.47 11.88 7.46 11.88 7.32 11.87 7.19 11.86 7.06 11.85 7.04 11.85 7.02 11.85 7 11.85 6.96 11.85 6.93 11.85 6.9 11.86 6.72 11.99 6.58 12.18 6.55 12.21 6.54 12.25 6.54 12.28 6.54 12.28 6.54 12.81 6.54 12.81 6.54 13.32 6.54 13.79 6.95 13.79 7.46 13.79 7.46 13.79 12.02 13.79 12.02 13.79 12.02 13.79 12.02 13.79 12.02ZM 6.34 7.46C 6.34 7.46 6.49 5.63 8.19 5.63 9.89 5.63 10.03 7.46 10.03 7.46 10.03 7.46 10.09 9.28 8.19 9.28 6.29 9.28 6.34 7.46 6.34 7.46ZM 13.65 0.14C 13.65 0.14 2.69 0.14 2.69 0.14 1.67 0.14 0.84 0.96 0.84 1.97 0.84 1.97 0.84 12.79 0.84 12.79 0.84 13.8 1.67 14.62 2.69 14.62 2.69 14.62 13.65 14.62 13.65 14.62 14.67 14.62 15.49 13.8 15.49 12.79 15.49 12.79 15.49 1.97 15.49 1.97 15.49 0.96 14.67 0.14 13.65 0.14" fill="rgb(95,95,95)"/></svg>
