<?xml version="1.0" encoding="utf-8"?>
<svg xmlns="http://www.w3.org/2000/svg"
	xmlns:xlink="http://www.w3.org/1999/xlink"
	width="16px" height="13px" viewBox="0 0 16 13">
<path fillRule="evenodd" d="M 14.67 0.89C 14.09 1.24 13.45 1.5 12.77 1.64 12.22 1.04 11.44 0.67 10.57 0.67 8.91 0.67 7.57 2.05 7.57 3.74 7.57 3.99 7.59 4.22 7.64 4.45 5.15 4.32 2.93 3.09 1.45 1.23 1.19 1.68 1.04 2.21 1.04 2.78 1.04 3.84 1.58 4.79 2.38 5.34 1.89 5.32 1.43 5.18 1.02 4.95 1.02 4.95 1.02 4.99 1.02 4.99 1.02 6.48 2.06 7.73 3.43 8.01 3.18 8.08 2.91 8.12 2.64 8.12 2.44 8.12 2.26 8.1 2.07 8.06 2.46 9.28 3.57 10.17 4.88 10.2 3.85 11.02 2.56 11.52 1.15 11.52 0.91 11.52 0.67 11.5 0.43 11.47 1.76 12.35 3.34 12.86 5.04 12.86 10.56 12.86 13.59 8.17 13.59 4.1 13.59 4.1 13.58 3.7 13.58 3.7 14.17 3.27 14.68 2.73 15.08 2.11 14.54 2.35 13.96 2.52 13.35 2.59 13.97 2.21 14.45 1.61 14.67 0.89Z" fill="rgb(95,95,95)"/></svg>
